<svg class="main-svg" xmlns="http://www.w3.org/2000/svg" xmlns:xlink="http://www.w3.org/1999/xlink" width="2400" height="1600" style="" viewBox="0 0 1200 800"><rect x="0" y="0" width="1200" height="800" style="fill: rgb(243, 243, 238); fill-opacity: 1;"/><defs id="defs-a57c7f"><g class="clips"><clipPath id="clipa57c7fxyplot" class="plotclip"><rect width="1028" height="572"/></clipPath><clipPath class="axesclip" id="clipa57c7fx"><rect x="92" y="0" width="1028" height="800"/></clipPath><clipPath class="axesclip" id="clipa57c7fy"><rect x="0" y="148" width="1200" height="572"/></clipPath><clipPath class="axesclip" id="clipa57c7fxy"><rect x="92" y="148" width="1028" height="572"/></clipPath></g><g class="gradients"/><g class="patterns"/></defs><g class="bglayer"/><g class="layer-below"><g class="imagelayer"/><g class="shapelayer"/></g><g class="cartesianlayer"><g class="subplot xy"><g class="layer-subplot"><g class="shapelayer"/><g class="imagelayer"/></g><g class="minor-gridlayer"><g class="x"/><g class="y"/></g><g class="gridlayer"><g class="x"><path class="xgrid crisp" transform="translate(206.22,0)" d="M0,148v572" style="stroke: rgb(211, 211, 211); stroke-opacity: 1; stroke-width: 1px;"/><path class="xgrid crisp" transform="translate(320.44,0)" d="M0,148v572" style="stroke: rgb(211, 211, 211); stroke-opacity: 1; stroke-width: 1px;"/><path class="xgrid crisp" transform="translate(434.67,0)" d="M0,148v572" style="stroke: rgb(211, 211, 211); stroke-opacity: 1; stroke-width: 1px;"/><path class="xgrid crisp" transform="translate(548.89,0)" d="M0,148v572" style="stroke: rgb(211, 211, 211); stroke-opacity: 1; stroke-width: 1px;"/><path class="xgrid crisp" transform="translate(663.11,0)" d="M0,148v572" style="stroke: rgb(211, 211, 211); stroke-opacity: 1; stroke-width: 1px;"/><path class="xgrid crisp" transform="translate(777.33,0)" d="M0,148v572" style="stroke: rgb(211, 211, 211); stroke-opacity: 1; stroke-width: 1px;"/><path class="xgrid crisp" transform="translate(891.56,0)" d="M0,148v572" style="stroke: rgb(211, 211, 211); stroke-opacity: 1; stroke-width: 1px;"/><path class="xgrid crisp" transform="translate(1005.78,0)" d="M0,148v572" style="stroke: rgb(211, 211, 211); stroke-opacity: 1; stroke-width: 1px;"/></g><g class="y"><path class="ygrid crisp" transform="translate(0,638.29)" d="M92,0h1028" style="stroke: rgb(211, 211, 211); stroke-opacity: 1; stroke-width: 1px;"/><path class="ygrid crisp" transform="translate(0,556.5699999999999)" d="M92,0h1028" style="stroke: rgb(211, 211, 211); stroke-opacity: 1; stroke-width: 1px;"/><path class="ygrid crisp" transform="translate(0,474.86)" d="M92,0h1028" style="stroke: rgb(211, 211, 211); stroke-opacity: 1; stroke-width: 1px;"/><path class="ygrid crisp" transform="translate(0,393.14)" d="M92,0h1028" style="stroke: rgb(211, 211, 211); stroke-opacity: 1; stroke-width: 1px;"/><path class="ygrid crisp" transform="translate(0,311.43)" d="M92,0h1028" style="stroke: rgb(211, 211, 211); stroke-opacity: 1; stroke-width: 1px;"/><path class="ygrid crisp" transform="translate(0,229.70999999999998)" d="M92,0h1028" style="stroke: rgb(211, 211, 211); stroke-opacity: 1; stroke-width: 1px;"/></g></g><g class="zerolinelayer"><path class="xzl zl crisp" transform="translate(92,0)" d="M0,148v572" style="stroke: rgb(68, 68, 68); stroke-opacity: 1; stroke-width: 1px;"/><path class="yzl zl crisp" transform="translate(0,720)" d="M92,0h1028" style="stroke: rgb(68, 68, 68); stroke-opacity: 1; stroke-width: 1px;"/></g><g class="layer-between"><g class="shapelayer"/><g class="imagelayer"/></g><path class="xlines-below"/><path class="ylines-below"/><g class="overlines-below"/><g class="xaxislayer-below"/><g class="yaxislayer-below"/><g class="overaxes-below"/><g class="overplot"><g class="xy" transform="translate(92,148)"><g class="scatterlayer mlayer"><g class="trace scatter tracef9f98d" style="stroke-miterlimit: 2; opacity: 1;"><g class="fills" clip-path="url(#clipa57c7fxyplot)"/><g class="errorbars"/><g class="lines"/><g class="points"><path class="point" transform="translate(228.44,402.44)" d="M5,0A5,5 0 1,1 0,-5A5,5 0 0,1 5,0Z" style="opacity: 0.7; stroke-width: 0px; fill: rgb(19, 52, 59); fill-opacity: 1;"/><path class="point" transform="translate(228.44,313.7)" d="M5,0A5,5 0 1,1 0,-5A5,5 0 0,1 5,0Z" style="opacity: 0.7; stroke-width: 0px; fill: rgb(19, 52, 59); fill-opacity: 1;"/><path class="point" transform="translate(205.6,437.17)" d="M5,0A5,5 0 1,1 0,-5A5,5 0 0,1 5,0Z" style="opacity: 0.7; stroke-width: 0px; fill: rgb(19, 52, 59); fill-opacity: 1;"/><path class="point" transform="translate(228.44,344.26)" d="M5,0A5,5 0 1,1 0,-5A5,5 0 0,1 5,0Z" style="opacity: 0.7; stroke-width: 0px; fill: rgb(19, 52, 59); fill-opacity: 1;"/><path class="point" transform="translate(228.44,349.9)" d="M5,0A5,5 0 1,1 0,-5A5,5 0 0,1 5,0Z" style="opacity: 0.7; stroke-width: 0px; fill: rgb(19, 52, 59); fill-opacity: 1;"/><path class="point" transform="translate(456.89,324.65)" d="M5,0A5,5 0 1,1 0,-5A5,5 0 0,1 5,0Z" style="opacity: 0.7; stroke-width: 0px; fill: rgb(19, 52, 59); fill-opacity: 1;"/><path class="point" transform="translate(228.44,334.95)" d="M5,0A5,5 0 1,1 0,-5A5,5 0 0,1 5,0Z" style="opacity: 0.7; stroke-width: 0px; fill: rgb(19, 52, 59); fill-opacity: 1;"/><path class="point" transform="translate(571.11,279.38)" d="M5,0A5,5 0 1,1 0,-5A5,5 0 0,1 5,0Z" style="opacity: 0.7; stroke-width: 0px; fill: rgb(19, 52, 59); fill-opacity: 1;"/><path class="point" transform="translate(456.89,103.7)" d="M5,0A5,5 0 1,1 0,-5A5,5 0 0,1 5,0Z" style="opacity: 0.7; stroke-width: 0px; fill: rgb(19, 52, 59); fill-opacity: 1;"/><path class="point" transform="translate(342.67,330.94)" d="M5,0A5,5 0 1,1 0,-5A5,5 0 0,1 5,0Z" style="opacity: 0.7; stroke-width: 0px; fill: rgb(19, 52, 59); fill-opacity: 1;"/><path class="point" transform="translate(228.44,378.75)" d="M5,0A5,5 0 1,1 0,-5A5,5 0 0,1 5,0Z" style="opacity: 0.7; stroke-width: 0px; fill: rgb(19, 52, 59); fill-opacity: 1;"/><path class="point" transform="translate(228.44,359.13)" d="M5,0A5,5 0 1,1 0,-5A5,5 0 0,1 5,0Z" style="opacity: 0.7; stroke-width: 0px; fill: rgb(19, 52, 59); fill-opacity: 1;"/><path class="point" transform="translate(342.67,363.96)" d="M5,0A5,5 0 1,1 0,-5A5,5 0 0,1 5,0Z" style="opacity: 0.7; stroke-width: 0px; fill: rgb(19, 52, 59); fill-opacity: 1;"/><path class="point" transform="translate(456.89,179.36)" d="M5,0A5,5 0 1,1 0,-5A5,5 0 0,1 5,0Z" style="opacity: 0.7; stroke-width: 0px; fill: rgb(19, 52, 59); fill-opacity: 1;"/><path class="point" transform="translate(456.89,379.81)" d="M5,0A5,5 0 1,1 0,-5A5,5 0 0,1 5,0Z" style="opacity: 0.7; stroke-width: 0px; fill: rgb(19, 52, 59); fill-opacity: 1;"/><path class="point" transform="translate(228.44,377.44)" d="M5,0A5,5 0 1,1 0,-5A5,5 0 0,1 5,0Z" style="opacity: 0.7; stroke-width: 0px; fill: rgb(19, 52, 59); fill-opacity: 1;"/><path class="point" transform="translate(137.07,473.21)" d="M5,0A5,5 0 1,1 0,-5A5,5 0 0,1 5,0Z" style="opacity: 0.7; stroke-width: 0px; fill: rgb(19, 52, 59); fill-opacity: 1;"/><path class="point" transform="translate(685.33,93.4)" d="M5,0A5,5 0 1,1 0,-5A5,5 0 0,1 5,0Z" style="opacity: 0.7; stroke-width: 0px; fill: rgb(19, 52, 59); fill-opacity: 1;"/><path class="point" transform="translate(319.82,335.19)" d="M5,0A5,5 0 1,1 0,-5A5,5 0 0,1 5,0Z" style="opacity: 0.7; stroke-width: 0px; fill: rgb(19, 52, 59); fill-opacity: 1;"/><path class="point" transform="translate(685.33,39.22)" d="M5,0A5,5 0 1,1 0,-5A5,5 0 0,1 5,0Z" style="opacity: 0.7; stroke-width: 0px; fill: rgb(19, 52, 59); fill-opacity: 1;"/><path class="point" transform="translate(228.44,396.23)" d="M5,0A5,5 0 1,1 0,-5A5,5 0 0,1 5,0Z" style="opacity: 0.7; stroke-width: 0px; fill: rgb(19, 52, 59); fill-opacity: 1;"/><path class="point" transform="translate(456.89,250.78)" d="M5,0A5,5 0 1,1 0,-5A5,5 0 0,1 5,0Z" style="opacity: 0.7; stroke-width: 0px; fill: rgb(19, 52, 59); fill-opacity: 1;"/><path class="point" transform="translate(228.44,332.5)" d="M5,0A5,5 0 1,1 0,-5A5,5 0 0,1 5,0Z" style="opacity: 0.7; stroke-width: 0px; fill: rgb(19, 52, 59); fill-opacity: 1;"/><path class="point" transform="translate(228.44,392.96)" d="M5,0A5,5 0 1,1 0,-5A5,5 0 0,1 5,0Z" style="opacity: 0.7; stroke-width: 0px; fill: rgb(19, 52, 59); fill-opacity: 1;"/><path class="point" transform="translate(913.78,86.54)" d="M5,0A5,5 0 1,1 0,-5A5,5 0 0,1 5,0Z" style="opacity: 0.7; stroke-width: 0px; fill: rgb(19, 52, 59); fill-opacity: 1;"/><path class="point" transform="translate(456.89,293.93)" d="M5,0A5,5 0 1,1 0,-5A5,5 0 0,1 5,0Z" style="opacity: 0.7; stroke-width: 0px; fill: rgb(19, 52, 59); fill-opacity: 1;"/><path class="point" transform="translate(685.33,176.83)" d="M5,0A5,5 0 1,1 0,-5A5,5 0 0,1 5,0Z" style="opacity: 0.7; stroke-width: 0px; fill: rgb(19, 52, 59); fill-opacity: 1;"/><path class="point" transform="translate(228.44,516.11)" d="M5,0A5,5 0 1,1 0,-5A5,5 0 0,1 5,0Z" style="opacity: 0.7; stroke-width: 0px; fill: rgb(19, 52, 59); fill-opacity: 1;"/><path class="point" transform="translate(456.89,446.9)" d="M5,0A5,5 0 1,1 0,-5A5,5 0 0,1 5,0Z" style="opacity: 0.7; stroke-width: 0px; fill: rgb(19, 52, 59); fill-opacity: 1;"/><path class="point" transform="translate(228.44,450.25)" d="M5,0A5,5 0 1,1 0,-5A5,5 0 0,1 5,0Z" style="opacity: 0.7; stroke-width: 0px; fill: rgb(19, 52, 59); fill-opacity: 1;"/><path class="point" transform="translate(228.44,393.37)" d="M5,0A5,5 0 1,1 0,-5A5,5 0 0,1 5,0Z" style="opacity: 0.7; stroke-width: 0px; fill: rgb(19, 52, 59); fill-opacity: 1;"/><path class="point" transform="translate(228.44,336.99)" d="M5,0A5,5 0 1,1 0,-5A5,5 0 0,1 5,0Z" style="opacity: 0.7; stroke-width: 0px; fill: rgb(19, 52, 59); fill-opacity: 1;"/><path class="point" transform="translate(274.13,410.21)" d="M5,0A5,5 0 1,1 0,-5A5,5 0 0,1 5,0Z" style="opacity: 0.7; stroke-width: 0px; fill: rgb(19, 52, 59); fill-opacity: 1;"/><path class="point" transform="translate(228.44,387.82)" d="M5,0A5,5 0 1,1 0,-5A5,5 0 0,1 5,0Z" style="opacity: 0.7; stroke-width: 0px; fill: rgb(19, 52, 59); fill-opacity: 1;"/><path class="point" transform="translate(228.44,388.88)" d="M5,0A5,5 0 1,1 0,-5A5,5 0 0,1 5,0Z" style="opacity: 0.7; stroke-width: 0px; fill: rgb(19, 52, 59); fill-opacity: 1;"/></g><g class="text"/></g><g class="trace scatter trace93c1a9" style="stroke-miterlimit: 2; opacity: 1;"><g class="fills" clip-path="url(#clipa57c7fxyplot)"/><g class="errorbars"/><g class="lines"><path class="js-line" d="M137.07,436.38L913.78,38.77" clip-path="url(#clipa57c7fxyplot)" style="vector-effect: none; fill: none; stroke: rgb(219, 69, 69); stroke-opacity: 1; stroke-width: 3px; opacity: 1;"/></g><g class="points" clip-path="url(#clipa57c7fxyplot)"/><g class="text" clip-path="url(#clipa57c7fxyplot)"/></g></g></g></g><path class="xlines-above crisp" d="" style="fill: none; stroke-width: 1px; stroke: rgb(0, 0, 0); stroke-opacity: 0;"/><path class="ylines-above crisp" d="" style="fill: none; stroke-width: 1px; stroke: rgb(0, 0, 0); stroke-opacity: 0;"/><g class="overlines-above"/><g class="xaxislayer-above"><path class="xtick ticks crisp" d="M0,721v5" transform="translate(92,0)" style="stroke: rgb(94, 82, 64); stroke-opacity: 0.2; stroke-width: 1px;"/><path class="xtick ticks crisp" d="M0,721v5" transform="translate(206.22,0)" style="stroke: rgb(94, 82, 64); stroke-opacity: 0.2; stroke-width: 1px;"/><path class="xtick ticks crisp" d="M0,721v5" transform="translate(320.44,0)" style="stroke: rgb(94, 82, 64); stroke-opacity: 0.2; stroke-width: 1px;"/><path class="xtick ticks crisp" d="M0,721v5" transform="translate(434.67,0)" style="stroke: rgb(94, 82, 64); stroke-opacity: 0.2; stroke-width: 1px;"/><path class="xtick ticks crisp" d="M0,721v5" transform="translate(548.89,0)" style="stroke: rgb(94, 82, 64); stroke-opacity: 0.2; stroke-width: 1px;"/><path class="xtick ticks crisp" d="M0,721v5" transform="translate(663.11,0)" style="stroke: rgb(94, 82, 64); stroke-opacity: 0.2; stroke-width: 1px;"/><path class="xtick ticks crisp" d="M0,721v5" transform="translate(777.33,0)" style="stroke: rgb(94, 82, 64); stroke-opacity: 0.2; stroke-width: 1px;"/><path class="xtick ticks crisp" d="M0,721v5" transform="translate(891.56,0)" style="stroke: rgb(94, 82, 64); stroke-opacity: 0.2; stroke-width: 1px;"/><path class="xtick ticks crisp" d="M0,721v5" transform="translate(1005.78,0)" style="stroke: rgb(94, 82, 64); stroke-opacity: 0.2; stroke-width: 1px;"/><path class="xtick ticks crisp" d="M0,721v5" transform="translate(1120,0)" style="stroke: rgb(94, 82, 64); stroke-opacity: 0.2; stroke-width: 1px;"/><g class="xtick"><text text-anchor="middle" x="0" y="745.2" transform="translate(92,0)" style="font-family: 'FK Grotesk Neue'; font-size: 16px; fill: rgb(98, 108, 113); fill-opacity: 1; white-space: pre; opacity: 1;">0</text></g><g class="xtick"><text text-anchor="middle" x="0" y="745.2" style="font-family: 'FK Grotesk Neue'; font-size: 16px; fill: rgb(98, 108, 113); fill-opacity: 1; white-space: pre; opacity: 1;" transform="translate(206.22,0)">5</text></g><g class="xtick"><text text-anchor="middle" x="0" y="745.2" style="font-family: 'FK Grotesk Neue'; font-size: 16px; fill: rgb(98, 108, 113); fill-opacity: 1; white-space: pre; opacity: 1;" transform="translate(320.44,0)">10</text></g><g class="xtick"><text text-anchor="middle" x="0" y="745.2" style="font-family: 'FK Grotesk Neue'; font-size: 16px; fill: rgb(98, 108, 113); fill-opacity: 1; white-space: pre; opacity: 1;" transform="translate(434.67,0)">15</text></g><g class="xtick"><text text-anchor="middle" x="0" y="745.2" style="font-family: 'FK Grotesk Neue'; font-size: 16px; fill: rgb(98, 108, 113); fill-opacity: 1; white-space: pre; opacity: 1;" transform="translate(548.89,0)">20</text></g><g class="xtick"><text text-anchor="middle" x="0" y="745.2" style="font-family: 'FK Grotesk Neue'; font-size: 16px; fill: rgb(98, 108, 113); fill-opacity: 1; white-space: pre; opacity: 1;" transform="translate(663.11,0)">25</text></g><g class="xtick"><text text-anchor="middle" x="0" y="745.2" style="font-family: 'FK Grotesk Neue'; font-size: 16px; fill: rgb(98, 108, 113); fill-opacity: 1; white-space: pre; opacity: 1;" transform="translate(777.33,0)">30</text></g><g class="xtick"><text text-anchor="middle" x="0" y="745.2" style="font-family: 'FK Grotesk Neue'; font-size: 16px; fill: rgb(98, 108, 113); fill-opacity: 1; white-space: pre; opacity: 1;" transform="translate(891.56,0)">35</text></g><g class="xtick"><text text-anchor="middle" x="0" y="745.2" style="font-family: 'FK Grotesk Neue'; font-size: 16px; fill: rgb(98, 108, 113); fill-opacity: 1; white-space: pre; opacity: 1;" transform="translate(1005.78,0)">40</text></g><g class="xtick"><text text-anchor="middle" x="0" y="745.2" style="font-family: 'FK Grotesk Neue'; font-size: 16px; fill: rgb(98, 108, 113); fill-opacity: 1; white-space: pre; opacity: 1;" transform="translate(1120,0)">45</text></g></g><g class="yaxislayer-above"><path class="ytick ticks crisp" d="M91,0h-5" transform="translate(0,720)" style="stroke: rgb(94, 82, 64); stroke-opacity: 0.2; stroke-width: 1px;"/><path class="ytick ticks crisp" d="M91,0h-5" transform="translate(0,638.29)" style="stroke: rgb(94, 82, 64); stroke-opacity: 0.2; stroke-width: 1px;"/><path class="ytick ticks crisp" d="M91,0h-5" transform="translate(0,556.5699999999999)" style="stroke: rgb(94, 82, 64); stroke-opacity: 0.2; stroke-width: 1px;"/><path class="ytick ticks crisp" d="M91,0h-5" transform="translate(0,474.86)" style="stroke: rgb(94, 82, 64); stroke-opacity: 0.2; stroke-width: 1px;"/><path class="ytick ticks crisp" d="M91,0h-5" transform="translate(0,393.14)" style="stroke: rgb(94, 82, 64); stroke-opacity: 0.2; stroke-width: 1px;"/><path class="ytick ticks crisp" d="M91,0h-5" transform="translate(0,311.43)" style="stroke: rgb(94, 82, 64); stroke-opacity: 0.2; stroke-width: 1px;"/><path class="ytick ticks crisp" d="M91,0h-5" transform="translate(0,229.70999999999998)" style="stroke: rgb(94, 82, 64); stroke-opacity: 0.2; stroke-width: 1px;"/><path class="ytick ticks crisp" d="M91,0h-5" transform="translate(0,148)" style="stroke: rgb(94, 82, 64); stroke-opacity: 0.2; stroke-width: 1px;"/><g class="ytick"><text text-anchor="end" x="82.8" y="5.6" transform="translate(0,720)" style="font-family: 'FK Grotesk Neue'; font-size: 16px; fill: rgb(98, 108, 113); fill-opacity: 1; white-space: pre; opacity: 1;">0</text></g><g class="ytick"><text text-anchor="end" x="82.8" y="5.6" style="font-family: 'FK Grotesk Neue'; font-size: 16px; fill: rgb(98, 108, 113); fill-opacity: 1; white-space: pre; opacity: 1;" transform="translate(0,638.29)">1000</text></g><g class="ytick"><text text-anchor="end" x="82.8" y="5.6" style="font-family: 'FK Grotesk Neue'; font-size: 16px; fill: rgb(98, 108, 113); fill-opacity: 1; white-space: pre; opacity: 1;" transform="translate(0,556.5699999999999)">2000</text></g><g class="ytick"><text text-anchor="end" x="82.8" y="5.6" style="font-family: 'FK Grotesk Neue'; font-size: 16px; fill: rgb(98, 108, 113); fill-opacity: 1; white-space: pre; opacity: 1;" transform="translate(0,474.86)">3000</text></g><g class="ytick"><text text-anchor="end" x="82.8" y="5.6" style="font-family: 'FK Grotesk Neue'; font-size: 16px; fill: rgb(98, 108, 113); fill-opacity: 1; white-space: pre; opacity: 1;" transform="translate(0,393.14)">4000</text></g><g class="ytick"><text text-anchor="end" x="82.8" y="5.6" style="font-family: 'FK Grotesk Neue'; font-size: 16px; fill: rgb(98, 108, 113); fill-opacity: 1; white-space: pre; opacity: 1;" transform="translate(0,311.43)">5000</text></g><g class="ytick"><text text-anchor="end" x="82.8" y="5.6" style="font-family: 'FK Grotesk Neue'; font-size: 16px; fill: rgb(98, 108, 113); fill-opacity: 1; white-space: pre; opacity: 1;" transform="translate(0,229.70999999999998)">6000</text></g><g class="ytick"><text text-anchor="end" x="82.8" y="5.6" style="font-family: 'FK Grotesk Neue'; font-size: 16px; fill: rgb(98, 108, 113); fill-opacity: 1; white-space: pre; opacity: 1;" transform="translate(0,148)">7000</text></g></g><g class="overaxes-above"/></g></g><g class="polarlayer"/><g class="smithlayer"/><g class="ternarylayer"/><g class="geolayer"/><g class="funnelarealayer"/><g class="pielayer"/><g class="iciclelayer"/><g class="treemaplayer"/><g class="sunburstlayer"/><g class="glimages"/><defs id="topdefs-a57c7f"><g class="clips"/></defs><g class="layer-above"><g class="imagelayer"/><g class="shapelayer"/></g><g class="infolayer"><g class="g-gtitle"><text class="gtitle" x="600" y="68" text-anchor="middle" dy="-0.3em" style="opacity: 1; font-family: 'FK Grotesk Neue'; font-size: 28px; fill: rgb(19, 52, 59); fill-opacity: 1; font-weight: 1000; white-space: pre;">Cart Deploy vs Orders</text></g><g class="g-xtitle"><text class="xtitle" x="606" y="787" text-anchor="middle" style="opacity: 1; font-family: 'FK Grotesk Neue'; font-size: 19px; fill: rgb(19, 52, 59); fill-opacity: 1; font-weight: 600; white-space: pre;">Deployed Carts</text></g><g class="g-ytitle"><text class="ytitle" transform="rotate(-90,19.271874999999994,434)" x="19.271874999999994" y="434" text-anchor="middle" style="opacity: 1; font-family: 'FK Grotesk Neue'; font-size: 19px; fill: rgb(19, 52, 59); fill-opacity: 1; font-weight: 600; white-space: pre;">Total Orders</text></g><g class="annotation" data-index="0" style="opacity: 1;"><g class="annotation-text-g" transform="rotate(0,154.56,177.44)"><g class="cursor-pointer" transform="translate(113,159)"><rect class="bg" x="0.5" y="0.5" width="83" height="35" style="stroke-width: 1px; stroke: rgb(128, 128, 128); stroke-opacity: 1; fill: rgb(255, 255, 255); fill-opacity: 1;"/><text class="annotation-text" text-anchor="middle" x="41.984375" y="14" style="font-family: 'FK Grotesk Neue'; font-size: 12px; fill: rgb(19, 52, 59); fill-opacity: 1; white-space: pre;"><tspan class="line" dy="0em" x="41.984375" y="14">y = 143x + 801</tspan><tspan class="line" dy="1.3em" x="41.984375" y="14">r = 0.81</tspan></text></g></g></g></g></svg>